<svg width="124" height="104" viewBox="0 0 124 104" fill="none" xmlns="http://www.w3.org/2000/svg">
<path d="M60.4502 3.69655C60.4502 6.37839 59.5805 9.56761 57.0436 15.8011C55.2315 20.5124 53.4195 25.7311 53.1295 27.5432C51.9698 33.7766 54.5067 40.59 59.9429 45.9536L63.277 49.2153L62.1173 46.0261C60.2328 40.59 60.6677 33.4867 63.567 24.7164C64.9441 20.4399 66.1038 15.5836 66.1038 13.8441C66.1038 9.93002 64.4368 4.92875 62.1173 2.17443L60.3778 -3.43323e-05L60.4502 3.69655Z" fill="#D17842"/>
<path d="M46.2437 22.977C42.2572 28.1232 41.025 35.0815 43.1994 39.3579C44.3592 41.5324 49.0705 46.0263 51.6074 47.4034C53.057 48.2007 53.057 47.9833 51.1 45.084C49.9403 43.4169 48.3457 40.5176 47.6208 38.7056C46.0262 34.5741 45.9538 26.9635 47.4759 23.2669C48.9255 19.9327 48.5631 19.8602 46.2437 22.977Z" fill="#D17842"/>
<path d="M119.046 42.2444C118.405 42.5126 115.731 43.1029 113.165 43.5322C110.599 43.9615 107.444 44.659 106.107 45.0347C104.076 45.6786 103.701 46.0005 103.381 47.503C103.167 48.4689 103.167 49.2201 103.327 49.2201C103.434 49.2201 105.198 48.6299 107.177 47.9323C109.155 47.1811 112.31 46.3225 114.181 46.0005C116.052 45.6786 118.138 45.2493 118.833 45.0883C119.528 44.9273 120.009 45.0347 120.009 45.4103C120.009 45.7859 118.565 48.4689 116.854 51.4202C115.143 54.3715 112.951 58.6643 111.989 61.0253C109.048 68.2694 105.519 70.1475 100.279 67.1962C99.0497 66.445 97.8734 65.8547 97.7664 65.8547C97.2852 65.8547 95.9486 69.1816 96.2694 69.6646C96.911 70.7378 100.172 71.7573 102.739 71.7573C107.872 71.7037 112.363 68.2158 113.593 63.2791C114.341 60.3278 115.464 58.074 119.848 50.7226C121.72 47.503 123.324 44.2834 123.377 43.4785C123.484 42.1907 123.27 41.976 121.88 41.8687C121.025 41.8151 119.742 41.976 119.046 42.2444Z" fill="white"/>
<path d="M0.507375 44.5766C3.04425 66.3937 17.6856 83.572 38.5605 89.1531C44.9389 90.8927 57.5508 90.8927 63.9292 89.1531C84.7316 83.4995 99.373 66.3937 101.91 44.8665L102.272 41.2424L100.533 44.8665C96.0388 54.0717 88.5007 59.0005 78.1357 59.5804C70.4526 60.0153 66.6111 58.928 52.9844 52.4771C35.7337 44.2867 24.7889 41.3149 8.40793 40.3726L0 39.9377L0.507375 44.5766Z" fill="white"/>
<path d="M3.84158 90.4576C4.42144 90.965 17.3957 94.4441 22.9769 95.5314C42.4746 99.3004 67.6983 98.7206 86.0363 94.0817C93.5745 92.1247 98.1408 90.7475 97.7784 90.4576C97.6335 90.3126 91.9798 90.82 85.239 91.5448C61.1749 94.2992 36.1686 94.1542 13.6267 91.1824C5.43619 90.1677 3.3342 89.9502 3.84158 90.4576Z" fill="white"/>
<path d="M25.3684 99.5905C30.0073 101.548 41.6044 103.215 51.2445 103.215C60.9571 103.215 74.0039 101.33 76.9032 99.518C77.773 99.0106 77.628 98.9382 76.2509 99.2281C64.7987 101.548 42.1118 101.548 26.2382 99.2281C24.0637 98.8657 23.9188 98.9382 25.3684 99.5905Z" fill="white"/>
</svg>
